<?xml version="1.0" encoding="iso-8859-1"?>
<!-- Generator: Adobe Illustrator 19.0.0, SVG Export Plug-In . SVG Version: 6.00 Build 0)  -->
<svg version="1.1" id="Capa_1" xmlns="http://www.w3.org/2000/svg" xmlns:xlink="http://www.w3.org/1999/xlink" x="0px" y="0px"
	 viewBox="0 0 512 512" style="enable-background:new 0 0 512 512;" xml:space="preserve">
<path style="fill:#2488FF;" d="M192.574,446.903H27.627c-11.073,0-20.05-8.977-20.05-20.05V85.147c0-11.073,8.977-20.05,20.05-20.05
	h164.947c11.073,0,20.05,8.977,20.05,20.05v341.706C212.624,437.926,203.648,446.903,192.574,446.903z"/>
<path style="fill:#006DF0;" d="M81.367,446.901h-53.74c-11.077,0-20.054-8.977-20.054-20.044V85.143
	c0-11.067,8.977-20.044,20.054-20.044h53.74c-11.067,0-20.044,8.977-20.044,20.044v341.714
	C61.323,437.924,70.3,446.901,81.367,446.901z"/>
<path style="fill:#9BC9FF;" d="M212.621,124.926v266.063c0,9.708-8.073,17.578-18.04,17.578H25.622
	c-9.967,0-18.04-7.87-18.04-17.578V124.926c0-9.708,8.073-17.578,18.04-17.578h168.96
	C204.549,107.348,212.621,115.218,212.621,124.926z"/>
<path style="fill:#FF9811;" d="M484.381,446.903H319.434c-11.073,0-20.05-8.977-20.05-20.05V85.147
	c0-11.073,8.977-20.05,20.05-20.05h164.947c11.073,0,20.05,8.977,20.05,20.05v341.706
	C504.431,437.926,495.454,446.903,484.381,446.903z"/>
<path style="fill:#EE8700;" d="M373.178,446.901h-53.74c-11.077,0-20.054-8.977-20.054-20.044V85.143
	c0-11.067,8.977-20.044,20.054-20.044h53.74c-11.067,0-20.044,8.977-20.044,20.044v341.714
	C353.134,437.924,362.111,446.901,373.178,446.901z"/>
<path style="fill:#FFB655;" d="M504.428,124.926v266.063c0,9.708-8.073,17.578-18.04,17.578H317.428
	c-9.967,0-18.04-7.87-18.04-17.578V124.926c0-9.708,8.073-17.578,18.04-17.578h168.959
	C496.355,107.348,504.428,115.218,504.428,124.926z"/>
<path style="fill:#FFA733;" d="M371.168,408.57h-53.74c-9.966,0-18.044-7.876-18.044-17.58V124.928
	c0-9.714,8.078-17.58,18.044-17.58h53.74c-9.966,0-18.044,7.866-18.044,17.58V390.99C353.124,400.694,361.202,408.57,371.168,408.57
	z"/>
<path style="fill:#9BC9FF;" d="M433.765,202.491l-45.45-45.45c-3.027-3.027-8.203-0.884-8.203,3.398v11.565
	c0,2.654-2.152,4.805-4.805,4.805H146.304c-2.654,0-4.805,2.152-4.805,4.805v48.548c0,2.654,2.152,4.805,4.805,4.805h229.001
	c2.654,0,4.805,2.152,4.805,4.805v11.565c0,4.281,5.176,6.425,8.203,3.398l45.45-45.45
	C435.641,207.41,435.641,204.368,433.765,202.491z"/>
<path style="fill:#FFB655;" d="M381.819,290.913H152.818c-2.654,0-4.805-2.152-4.805-4.805v-11.565c0-4.281-5.176-6.425-8.203-3.398
	l-45.45,45.45c-1.877,1.877-1.877,4.92,0,6.796l45.45,45.45c3.027,3.027,8.203,0.884,8.203-3.398v-11.565
	c0-2.654,2.152-4.805,4.805-4.805h229.001c2.654,0,4.805-2.152,4.805-4.805v-48.548
	C386.625,293.064,384.473,290.913,381.819,290.913z"/>
<path style="fill:#57A4FF;" d="M79.357,408.57h-53.74c-9.966,0-18.034-7.876-18.034-17.58V124.928c0-9.714,8.068-17.58,18.034-17.58
	h53.74c-9.966,0-18.034,7.866-18.034,17.58V390.99C61.323,400.694,69.391,408.57,79.357,408.57z"/>
<path d="M484.383,57.526H319.438c-15.237,0-27.627,12.39-27.627,27.617v39.785v44.308h-71.612c0-14.65,0-65.783,0-84.093
	c0-15.227-12.39-27.617-27.627-27.617h-8.593c-4.18,0-7.573,3.383-7.573,7.573c0,4.18,3.393,7.573,7.573,7.573h8.593
	c6.887,0,12.481,5.594,12.481,12.471v16.833c-4.624-2.042-5.749-2.336-26.49-2.284H25.618c-3.726,0-7.28,0.871-10.471,2.294V85.143
	c0-6.876,5.604-12.471,12.481-12.471h126.059c4.18,0,7.573-3.393,7.573-7.573c0-4.191-3.393-7.573-7.573-7.573H27.627
	C12.4,57.526,0,69.916,0,85.143v341.714c0,15.227,12.4,27.617,27.627,27.617h164.945c15.237,0,27.627-12.39,27.627-27.617V390.99
	v-34.342h71.612c0,7.996,0,61.471,0,70.209c0,15.227,12.39,27.617,27.627,27.617h164.945c15.227,0,27.617-12.39,27.617-27.617
	c0-4.388,0-334.439,0-341.714C512,69.916,499.61,57.526,484.383,57.526z M205.052,426.857c0,6.876-5.594,12.471-12.481,12.471
	H27.627c-6.876,0-12.481-5.594-12.481-12.471v-12.925c3.191,1.424,6.745,2.211,10.471,2.211
	c178.011-0.796,170.328,1.821,179.435-2.201L205.052,426.857L205.052,426.857z M496.854,101.976
	c-8.788-3.882-8.164-1.456-96.079-2.201c-4.506,0-8.095,3.94-7.511,8.561c0.484,3.82,3.916,6.586,7.766,6.586h85.352
	c5.776,0,10.471,4.483,10.471,10.007V390.99c0,5.513-4.695,10.007-10.471,10.007H376.53c-4.18,0-7.573,3.383-7.573,7.573
	c0,4.18,3.393,7.573,7.573,7.573c114.32-0.768,111.441,1.722,120.323-2.201v12.915c0,6.888-5.583,12.471-12.471,12.471H319.438
	c-6.893,0-12.481-5.588-12.481-12.481v-12.905c8.193,3.619,12.599,1.619,39.28,2.201c4.27,0,7.702-3.524,7.569-7.814
	c-0.128-4.142-3.741-7.333-7.885-7.333h-28.493c-5.776,0-10.471-4.493-10.471-10.007v-34.342c0-8.365-6.782-15.146-15.146-15.146
	H150.795c-4.18,0-7.573,3.383-7.573,7.573v9.684l-38.775-38.765l38.775-38.765v9.684c0,4.182,3.391,7.573,7.573,7.573h141.016
	c8.365,0,15.146-6.782,15.146-15.146v-40.794h66.22v20.397c0,4.165,3.38,7.573,7.573,7.573c5.368,0,6.018-3.816,22.124-18.994
	c2.959-2.959,2.959-7.745,0-10.703c-2.959-2.959-7.745-2.959-10.703,0l-3.847,3.837v-9.684c0-4.191-3.393-7.573-7.573-7.573
	c-15.246,0-146.015,0-160.552,0c-8.365,0-15.146,6.782-15.146,15.146v40.794h-46.684V263.17c0-2.474-1.087-4.882-3.089-6.335
	c-3.106-2.255-7.254-1.837-9.846,0.756l-57.052,57.052c-2.949,2.949-2.949,7.745,0,10.703l57.052,57.052
	c1.454,1.454,3.393,2.221,5.362,2.221c0.979,0,1.959-0.192,2.898-0.576c2.827-1.171,4.675-3.938,4.675-6.998v-20.397h46.684v34.342
	c0,5.513-4.695,10.007-10.471,10.007H25.618c-5.766,0-10.461-4.493-10.461-10.007V124.928c0-5.523,4.695-10.007,10.461-10.007
	h168.964c5.776,0,10.471,4.483,10.471,10.007v44.308c0,8.365,6.782,15.146,15.146,15.146h160.552c4.182,0,7.573-3.391,7.573-7.573
	v-9.684l38.775,38.765l-13.511,13.501c-3.013,3.013-2.958,7.933,0.168,10.876c3.019,2.843,7.838,2.547,10.771-0.387l18.637-18.638
	c2.949-2.959,2.949-7.755,0-10.703l-57.056-57.056c-4.772-4.772-12.931-1.392-12.931,5.356v20.397h-66.22v-44.308
	c0-5.523,4.695-10.007,10.471-10.007h52.797c3.85,0,7.282-2.766,7.766-6.586c0.585-4.621-3.005-8.561-7.511-8.561h-53.053
	c-3.726,0-7.27,0.788-10.471,2.201V85.143c0-6.888,5.583-12.471,12.471-12.471h164.955c6.888,0,12.471,5.583,12.471,12.471
	L496.854,101.976L496.854,101.976z M220.199,283.339v-40.794h71.612v40.794H220.199z"/>
<g>
</g>
<g>
</g>
<g>
</g>
<g>
</g>
<g>
</g>
<g>
</g>
<g>
</g>
<g>
</g>
<g>
</g>
<g>
</g>
<g>
</g>
<g>
</g>
<g>
</g>
<g>
</g>
<g>
</g>
</svg>
